<?xml version="1.0" standalone="no"?>
<!DOCTYPE svg PUBLIC "-//W3C//DTD SVG 20010904//EN"
 "http://www.w3.org/TR/2001/REC-SVG-20010904/DTD/svg10.dtd">
<svg version="1.0" xmlns="http://www.w3.org/2000/svg"
 width="512.000000pt" height="512.000000pt" viewBox="0 0 512.000000 512.000000"
 preserveAspectRatio="xMidYMid meet">
<metadata>
Created by potrace 1.14, written by Peter Selinger 2001-2017
</metadata>
<g transform="translate(0.000000,512.000000) scale(0.100000,-0.100000)"
fill="#000000" stroke="none">
<path d="M1034 4391 c-2 -2 -4 -690 -4 -1528 0 -1211 3 -1523 13 -1524 6 -1
141 -2 299 -3 157 0 290 -4 294 -9 4 -4 7 -140 7 -302 l-1 -295 42 0 c86 -1
542 -2 556 -1 13 1 15 40 15 303 l0 303 300 0 300 0 3 -301 c2 -277 4 -302 20
-306 9 -2 148 -3 307 -3 l290 0 1 292 c1 160 4 298 7 306 4 12 48 14 274 15
147 0 282 1 300 1 l31 1 0 1525 0 1525 -21 1 c-27 1 -556 1 -577 0 -13 -1 -15
-176 -15 -1526 l0 -1525 -302 0 -303 0 0 58 c0 31 -1 306 -1 610 l-1 552 -309
0 -309 0 0 -610 0 -610 -302 0 -303 0 2 1525 c1 839 -1 1525 -5 1526 -24 3
-604 3 -608 0z"/>
</g>
</svg>
